<svg version="1.2" xmlns="http://www.w3.org/2000/svg" viewBox="0 0 400 400" width="400" height="400">
	<title>1-svg</title>
	<style>
		.s0 { fill: #1a92af;stroke: #000000;stroke-width: .4 } 
		.s1 { fill: #000000;stroke: #000000;stroke-width: .4 } 
		.s2 { fill: #3ea5bc;stroke: #000000 } 
		.s3 { fill: #43bfdb;stroke: #000000;stroke-width: .4 } 
		.s4 { fill: #22a1a5;stroke: #000000 } 
		.s5 { fill: #22a1a5;stroke: #000000;stroke-width: 1 } 
	</style>
	<g id="Layer">
		<path id="svg_1" class="s0" d="m200 399c-110 0-199-89-199-199 0-110 89-199 199-199 110 0 199 89 199 199 0 110-89 199-199 199z"/>
		<path id="svg_2" class="s1" d="m200.6 378.6c-97.9 0-177-79.1-177-177 0-97.9 79.1-177 177-177 97.9 0 177 79.1 177 177 0 97.9-79.1 177-177 177z"/>
		<path id="svg_7" class="s2" d="m129.2 54l20.7-7.9 64.1 168.2-20.7 7.9z"/>
		<path id="svg_6" class="s3" d="m167.8 190.6l117.3-26.8 4.4 19.2-117.3 26.8z"/>
		<path id="svg_9" class="s4" d="m190.6 60.7l17.8-6.9 15.2 39.2-17.8 6.9z"/>
		<path id="svg_10" class="s5" d="m233.4 60.4l12.4-4.6 9.7 26.6-12.3 4.5z"/>
	</g>
</svg>